<svg version="1.1" id="Layer_1" xmlns="http://www.w3.org/2000/svg" xmlns:xlink="http://www.w3.org/1999/xlink" x="0px" y="0px"
	 width="100%" viewBox="0 0 610 207" enable-background="new 0 0 610 207" xml:space="preserve">
<path fill="#000000" opacity="1.000000" stroke="none" 
	d="
M468.000000,208.000000 
	C312.047577,208.000000 156.595154,208.000000 1.071363,208.000000 
	C1.071363,139.068756 1.071363,70.137405 1.071363,1.103029 
	C204.333298,1.103029 407.666656,1.103029 610.978088,1.103029 
	C610.978088,70.071442 610.978088,139.035721 610.978088,208.000000 
	C563.470764,208.000000 515.985413,208.000000 468.000000,208.000000 
M258.976562,20.928400 
	C258.976562,20.928400 258.909332,20.911369 258.162872,21.359661 
	C258.095337,41.884823 258.027802,62.409981 257.026703,82.990578 
	C243.368713,82.980217 229.710739,82.969864 216.008377,82.028191 
	C216.005142,62.764648 216.026093,43.501007 215.947464,24.237776 
	C215.941879,22.867239 215.205185,21.499685 213.902328,20.009636 
	C202.009033,20.009636 190.115738,20.009636 178.116898,20.009636 
	C178.116898,30.870335 178.116898,40.999355 177.961716,51.502113 
	C177.961716,51.502113 177.943619,51.906387 177.175705,52.338898 
	C177.118744,52.832867 177.012024,53.326824 177.011902,53.820805 
	C177.002640,95.404869 176.993835,136.988953 177.039825,178.572952 
	C177.041122,179.748886 177.632645,180.924164 177.946350,182.472809 
	C177.946350,182.472809 178.110733,182.807709 178.363068,183.676987 
	C190.508835,183.740204 202.654587,183.803406 215.704681,183.802597 
	C215.802643,182.157196 215.982773,180.511963 215.985977,178.866364 
	C216.023575,159.591141 216.034607,140.315872 216.984177,121.005424 
	C230.643188,121.025345 244.302200,121.045273 257.994720,121.993813 
	C257.996643,141.211105 257.976013,160.428467 258.047211,179.645508 
	C258.052399,181.046997 258.723450,182.446030 259.995422,183.982391 
	C270.485016,183.988434 280.974884,184.032410 291.463898,183.958893 
	C293.004730,183.948105 294.541626,183.379288 296.004730,183.037415 
	C296.004730,183.037415 296.040863,183.110855 296.812683,182.677856 
	C296.871246,182.350601 296.980988,182.023361 296.981079,181.696091 
	C296.992493,129.079788 297.001648,76.463478 296.952118,23.847239 
	C296.951263,22.949902 296.236206,22.053236 295.544861,20.977116 
	C295.544861,20.977116 295.187531,20.992706 294.653717,20.281885 
	C283.264160,20.195938 271.874664,20.097746 260.484955,20.063358 
	C259.963409,20.061783 259.440186,20.634300 258.976562,20.928400 
M97.989395,141.810074 
	C102.376328,154.855286 106.763260,167.900482 111.301247,181.744354 
	C112.840721,182.494110 114.368217,183.865204 115.921562,183.895142 
	C128.138672,184.130707 140.360825,184.096588 152.581207,184.176804 
	C155.770050,184.197739 155.686905,182.899536 154.026291,180.064606 
	C152.646301,174.853241 151.390533,169.605194 149.864746,164.436874 
	C143.338318,142.329865 136.703918,120.254753 130.162613,98.152107 
	C122.558640,72.458839 115.010788,46.748955 106.842888,20.336538 
	C91.132980,20.226957 75.422760,20.145472 59.713505,19.975704 
	C57.507507,19.951864 56.650047,20.691248 56.911861,23.458397 
	C56.348995,24.071249 55.473343,24.594780 55.269093,25.310038 
	C50.396492,42.373119 45.685326,59.482628 40.755264,76.528877 
	C36.467762,91.353416 31.916349,106.101433 27.539104,120.900284 
	C23.059765,136.044312 18.581432,151.189362 14.246800,166.375107 
	C12.673930,171.885437 11.517542,177.514664 10.346771,183.771942 
	C10.596926,183.991119 10.848811,184.403885 11.096985,184.401688 
	C23.490082,184.290894 35.883369,184.174438 48.275024,183.963852 
	C49.797333,183.937988 51.310738,183.388275 53.010044,182.324768 
	C57.699810,168.575150 62.389580,154.825531 68.005066,141.010071 
	C77.974869,141.023407 87.944679,141.036743 97.989395,141.810074 
M542.982910,141.823334 
	C547.705933,155.511261 552.428955,169.199188 557.336670,183.759888 
	C570.729614,183.837051 584.122559,183.910797 597.515503,183.994385 
	C600.053894,184.010223 600.927368,183.197311 599.039490,180.144104 
	C597.052551,172.931412 595.163025,165.690186 593.060791,158.511246 
	C585.833923,133.832016 578.477478,109.190628 571.280396,84.502769 
	C566.999023,69.816490 563.010925,55.044628 558.715637,40.362541 
	C556.813110,33.859379 554.476379,27.483248 551.791016,20.309160 
	C536.041687,20.207354 520.292114,20.056738 504.543610,20.131205 
	C503.647430,20.135441 502.759979,21.982546 501.228546,23.363499 
	C494.967529,44.933075 488.780823,66.524551 482.426819,88.066711 
	C474.424591,115.196785 466.241791,142.273605 458.249298,169.406540 
	C456.929535,173.886917 456.185181,178.536819 455.383850,183.816101 
	C457.970551,183.877975 460.557159,183.987900 463.143982,183.993210 
	C473.238037,184.013931 483.332550,184.041138 493.425964,183.957764 
	C494.898346,183.945587 496.365875,183.346924 498.010010,182.271957 
	C502.703247,168.532944 507.396515,154.793930 513.010559,141.002945 
	C522.978088,141.021515 532.945618,141.040070 542.982910,141.823334 
M362.427094,23.145895 
	C361.094757,23.753330 359.751770,24.338547 358.431854,24.971870 
	C350.763641,28.651228 343.584808,32.526932 337.708008,39.344246 
	C328.301636,50.256092 327.242462,75.813942 335.882721,87.524406 
	C343.141357,97.362259 352.910583,104.126999 363.016815,110.663483 
	C372.174683,116.586617 381.071198,122.953217 389.745605,129.566727 
	C393.696594,132.578995 394.133942,138.055725 391.861359,142.105759 
	C389.543732,146.236008 383.758759,148.710144 379.159088,147.553391 
	C372.127228,145.784973 367.921051,141.003296 364.838501,134.722778 
	C364.214203,133.450760 361.571930,131.887558 360.573029,132.278854 
	C350.376770,136.273087 340.295563,140.570755 330.287689,145.020950 
	C329.271759,145.472687 328.148376,147.686066 328.421967,148.728363 
	C331.569427,160.720596 338.967834,169.560501 349.481140,175.860779 
	C360.702057,182.585052 372.882904,184.699921 385.907257,184.124023 
	C397.735474,183.600998 408.748413,181.276520 419.034760,175.138657 
	C427.081085,170.337402 433.138214,164.020111 435.984161,155.162445 
	C443.044189,133.189163 432.455475,112.128281 414.985260,99.081161 
	C402.796234,89.978142 389.574280,82.260635 376.842224,73.880943 
	C372.760559,71.194557 370.938477,65.037239 372.640961,60.836464 
	C374.333191,56.660995 379.651794,53.886063 385.230103,54.709774 
	C392.980042,55.854149 397.055847,61.373062 399.645050,67.825470 
	C400.922180,71.008148 402.038361,71.070198 404.583954,70.046555 
	C413.352509,66.520515 422.162903,63.098602 430.934845,59.580933 
	C433.315216,58.626369 434.266388,57.499344 433.338623,54.321259 
	C428.167450,36.606911 415.342102,27.164389 398.762085,22.034500 
	C386.928680,18.373228 374.962341,20.678070 362.427094,23.145895 
z"/>
<path fill="#D23E5A" opacity="1.000000" stroke="none" 
	d="
M455.174927,183.108368 
	C456.185181,178.536819 456.929535,173.886917 458.249298,169.406540 
	C466.241791,142.273605 474.424591,115.196785 482.426819,88.066711 
	C488.780823,66.524551 494.967529,44.933075 501.875092,22.950199 
	C504.369812,22.023684 506.214874,21.078779 508.066620,21.065592 
	C522.822632,20.960497 537.579834,21.032068 552.336670,21.049465 
	C554.476379,27.483248 556.813110,33.859379 558.715637,40.362541 
	C563.010925,55.044628 566.999023,69.816490 571.280396,84.502769 
	C578.477478,109.190628 585.833923,133.832016 593.060791,158.511246 
	C595.163025,165.690186 597.052551,172.931412 598.878296,180.899048 
	C597.193115,182.105972 595.671204,182.941162 594.144836,182.949448 
	C581.814331,183.016464 569.483032,182.928070 557.151978,182.887115 
	C552.428955,169.199188 547.705933,155.511261 542.665710,141.138809 
	C534.296265,140.303604 526.244263,140.076477 518.191711,140.055588 
	C516.158630,140.050308 514.123779,140.704025 512.089783,141.054901 
	C507.396515,154.793930 502.703247,168.532944 497.464691,182.642365 
	C483.004547,183.044632 469.089752,183.076492 455.174927,183.108368 
z"/>
<path fill="#8616A2" opacity="1.000000" stroke="none" 
	d="
M10.171121,183.089630 
	C11.517542,177.514664 12.673930,171.885437 14.246800,166.375107 
	C18.581432,151.189362 23.059765,136.044312 27.539104,120.900284 
	C31.916349,106.101433 36.467762,91.353416 40.755264,76.528877 
	C45.685326,59.482628 50.396492,42.373119 55.269093,25.310038 
	C55.473343,24.594780 56.348995,24.071249 57.313354,22.902882 
	C59.572910,21.896725 61.428623,21.067003 63.289402,21.055492 
	C78.005249,20.964455 92.722069,21.029335 107.438583,21.046282 
	C115.010788,46.748955 122.558640,72.458839 130.162613,98.152107 
	C136.703918,120.254753 143.338318,142.329865 149.864746,164.436874 
	C151.390533,169.605194 152.646301,174.853241 153.860870,180.827301 
	C151.877655,182.067490 150.065323,182.932068 148.241135,182.957825 
	C138.509155,183.095215 128.770630,183.167480 119.042618,182.927795 
	C116.397141,182.862610 113.780228,181.638123 111.150200,180.945694 
	C106.763260,167.900482 102.376328,154.855286 97.677109,141.119217 
	C87.581795,140.321930 77.798828,140.206497 68.015518,140.150101 
	C67.705254,140.148300 67.391487,140.753632 67.079353,141.075912 
	C62.389580,154.825531 57.699810,168.575150 52.461285,182.693542 
	C37.998722,183.071442 24.084923,183.080536 10.171121,183.089630 
z"/>
<path fill="#9F238A" opacity="1.000000" stroke="none" 
	d="
M295.187531,20.992706 
	C295.187531,20.992706 295.544861,20.977116 295.699585,21.523689 
	C295.858582,60.131210 295.846985,98.192177 295.874908,136.253113 
	C295.886383,151.872391 295.983002,167.491608 296.040894,183.110855 
	C296.040863,183.110855 296.004730,183.037415 295.569550,183.029449 
	C283.152496,182.987518 271.170593,182.953552 259.114624,182.461197 
	C258.958313,161.696457 258.876099,141.390076 258.539856,120.757614 
	C244.516174,120.316460 230.746582,120.190193 216.976730,120.126869 
	C216.420547,120.124306 215.861618,120.716705 215.193314,121.486847 
	C214.978836,142.251816 214.875046,162.561844 214.318100,182.900024 
	C201.946884,182.888031 190.028809,182.847870 178.110733,182.807709 
	C178.110733,182.807709 177.946350,182.472809 178.030548,181.817947 
	C178.128067,153.046036 178.166901,124.928963 178.144318,96.811943 
	C178.132294,81.843384 178.013962,66.874901 177.943619,51.906387 
	C177.943619,51.906387 177.961716,51.502113 178.226974,50.931751 
	C178.649536,42.235607 178.924973,34.109604 178.909897,25.984140 
	C178.903244,22.394726 180.179718,20.894522 183.863190,20.955647 
	C194.161362,21.126537 204.463226,21.076927 214.848312,21.568853 
	C214.957718,24.521891 214.991409,27.020367 215.005707,29.518951 
	C215.107712,47.336117 215.205780,65.153305 215.580841,83.264572 
	C229.630081,83.676140 243.403534,83.804993 257.177246,83.868584 
	C257.714752,83.871071 258.255157,83.248886 258.876495,82.460754 
	C258.942291,61.639614 258.925812,41.275494 258.909302,20.911369 
	C258.909332,20.911369 258.976562,20.928400 259.420532,20.951115 
	C271.638855,20.980124 283.413208,20.986416 295.187531,20.992706 
z"/>
<path fill="#B93272" opacity="1.000000" stroke="none" 
	d="
M362.777710,23.040325 
	C374.962341,20.678070 386.928680,18.373228 398.762085,22.034500 
	C415.342102,27.164389 428.167450,36.606911 433.338623,54.321259 
	C434.266388,57.499344 433.315216,58.626369 430.934845,59.580933 
	C422.162903,63.098602 413.352509,66.520515 404.583954,70.046555 
	C402.038361,71.070198 400.922180,71.008148 399.645050,67.825470 
	C397.055847,61.373062 392.980042,55.854149 385.230103,54.709774 
	C379.651794,53.886063 374.333191,56.660995 372.640961,60.836464 
	C370.938477,65.037239 372.760559,71.194557 376.842224,73.880943 
	C389.574280,82.260635 402.796234,89.978142 414.985260,99.081161 
	C432.455475,112.128281 443.044189,133.189163 435.984161,155.162445 
	C433.138214,164.020111 427.081085,170.337402 419.034760,175.138657 
	C408.748413,181.276520 397.735474,183.600998 385.907257,184.124023 
	C372.882904,184.699921 360.702057,182.585052 349.481140,175.860779 
	C338.967834,169.560501 331.569427,160.720596 328.421967,148.728363 
	C328.148376,147.686066 329.271759,145.472687 330.287689,145.020950 
	C340.295563,140.570755 350.376770,136.273087 360.573029,132.278854 
	C361.571930,131.887558 364.214203,133.450760 364.838501,134.722778 
	C367.921051,141.003296 372.127228,145.784973 379.159088,147.553391 
	C383.758759,148.710144 389.543732,146.236008 391.861359,142.105759 
	C394.133942,138.055725 393.696594,132.578995 389.745605,129.566727 
	C381.071198,122.953217 372.174683,116.586617 363.016815,110.663483 
	C352.910583,104.126999 343.141357,97.362259 335.882721,87.524406 
	C327.242462,75.813942 328.301636,50.256092 337.708008,39.344246 
	C343.584808,32.526932 350.763641,28.651228 358.431854,24.971870 
	C359.751770,24.338547 361.094757,23.753330 362.777710,23.040325 
z"/>
<path fill="#EDE1EB" opacity="1.000000" stroke="none" 
	d="
M296.426788,182.894348 
	C295.983002,167.491608 295.886383,151.872391 295.874908,136.253113 
	C295.846985,98.192177 295.858582,60.131210 295.854370,21.613260 
	C296.236206,22.053236 296.951263,22.949902 296.952118,23.847239 
	C297.001648,76.463478 296.992493,129.079788 296.981079,181.696091 
	C296.980988,182.023361 296.871246,182.350601 296.426788,182.894348 
z"/>
<path fill="#F6F6F6" opacity="1.000000" stroke="none" 
	d="
M177.559662,52.122643 
	C178.013962,66.874901 178.132294,81.843384 178.144318,96.811943 
	C178.166901,124.928963 178.128067,153.046036 178.031860,181.631409 
	C177.632645,180.924164 177.041122,179.748886 177.039825,178.572952 
	C176.993835,136.988953 177.002640,95.404869 177.011902,53.820805 
	C177.012024,53.326824 177.118744,52.832867 177.559662,52.122643 
z"/>
<path fill="#B75EA7" opacity="1.000000" stroke="none" 
	d="
M214.763626,21.114342 
	C204.463226,21.076927 194.161362,21.126537 183.863190,20.955647 
	C180.179718,20.894522 178.903244,22.394726 178.909897,25.984140 
	C178.924973,34.109604 178.649536,42.235607 178.304565,50.744881 
	C178.116898,40.999355 178.116898,30.870335 178.116898,20.009636 
	C190.115738,20.009636 202.009033,20.009636 214.340851,20.315704 
	C214.779388,20.621771 214.763626,21.114340 214.763626,21.114342 
z"/>
<path fill="#EADBE7" opacity="1.000000" stroke="none" 
	d="
M258.793915,121.083702 
	C258.876099,141.390076 258.958313,161.696457 259.076294,182.691467 
	C259.112091,183.380112 259.084900,183.846207 259.084900,183.846207 
	C258.723450,182.446030 258.052399,181.046997 258.047211,179.645508 
	C257.976013,160.428467 257.996643,141.211105 258.185303,121.561325 
	C258.375916,121.128830 258.793915,121.083702 258.793915,121.083702 
z"/>
<path fill="#DAB4D4" opacity="1.000000" stroke="none" 
	d="
M214.848312,21.568851 
	C214.763626,21.114340 214.779388,20.621771 214.793915,20.376259 
	C215.205185,21.499685 215.941879,22.867239 215.947464,24.237776 
	C216.026093,43.501007 216.005142,62.764648 215.843628,82.487900 
	C215.678879,82.947609 215.305084,82.970490 215.305084,82.970490 
	C215.205780,65.153305 215.107712,47.336117 215.005707,29.518951 
	C214.991409,27.020367 214.957718,24.521891 214.848312,21.568851 
z"/>
<path fill="#DAB4D4" opacity="1.000000" stroke="none" 
	d="
M214.771240,182.871857 
	C214.875046,162.561844 214.978836,142.251816 215.380371,121.497795 
	C215.678116,121.053795 216.052643,121.040611 216.052643,121.040611 
	C216.034607,140.315872 216.023575,159.591141 215.985977,178.866364 
	C215.982773,180.511963 215.802643,182.157196 215.242950,183.586212 
	C214.781204,183.369827 214.771240,182.871857 214.771240,182.871857 
z"/>
<path fill="#EADAE7" opacity="1.000000" stroke="none" 
	d="
M258.536072,21.135515 
	C258.925812,41.275494 258.942291,61.639614 258.667450,82.438080 
	C258.376129,82.872414 257.960266,82.935143 257.960266,82.935143 
	C258.027802,62.409981 258.095337,41.884823 258.536072,21.135515 
z"/>
<path fill="#DB7185" opacity="1.000000" stroke="none" 
	d="
M552.063843,20.679314 
	C537.579834,21.032068 522.822632,20.960497 508.066620,21.065592 
	C506.214874,21.078779 504.369812,22.023684 502.195068,22.754425 
	C502.759979,21.982546 503.647430,20.135441 504.543610,20.131205 
	C520.292114,20.056738 536.041687,20.207354 552.063843,20.679314 
z"/>
<path fill="#A454B8" opacity="1.000000" stroke="none" 
	d="
M107.140732,20.691410 
	C92.722069,21.029335 78.005249,20.964455 63.289402,21.055492 
	C61.428623,21.067003 59.572910,21.896725 57.444542,22.604572 
	C56.650047,20.691248 57.507507,19.951864 59.713505,19.975704 
	C75.422760,20.145472 91.132980,20.226957 107.140732,20.691410 
z"/>
<path fill="#A658BA" opacity="1.000000" stroke="none" 
	d="
M111.225723,181.345032 
	C113.780228,181.638123 116.397141,182.862610 119.042618,182.927795 
	C128.770630,183.167480 138.509155,183.095215 148.241135,182.957825 
	C150.065323,182.932068 151.877655,182.067490 153.860657,181.225647 
	C155.686905,182.899536 155.770050,184.197739 152.581207,184.176804 
	C140.360825,184.096588 128.138672,184.130707 115.921562,183.895142 
	C114.368217,183.865204 112.840721,182.494110 111.225723,181.345032 
z"/>
<path fill="#DB7084" opacity="1.000000" stroke="none" 
	d="
M455.279388,183.462234 
	C469.089752,183.076492 483.004547,183.044632 497.377502,183.016205 
	C496.365875,183.346924 494.898346,183.945587 493.425964,183.957764 
	C483.332550,184.041138 473.238037,184.013931 463.143982,183.993210 
	C460.557159,183.987900 457.970551,183.877975 455.279388,183.462234 
z"/>
<path fill="#DC7387" opacity="1.000000" stroke="none" 
	d="
M557.244324,183.323502 
	C569.483032,182.928070 581.814331,183.016464 594.144836,182.949448 
	C595.671204,182.941162 597.193115,182.105972 598.907104,181.305527 
	C600.927368,183.197311 600.053894,184.010223 597.515503,183.994385 
	C584.122559,183.910797 570.729614,183.837051 557.244324,183.323502 
z"/>
<path fill="#D6AACF" opacity="1.000000" stroke="none" 
	d="
M216.518402,121.023018 
	C216.052643,121.040611 215.678116,121.053795 215.491058,121.042847 
	C215.861618,120.716705 216.420547,120.124306 216.976730,120.126869 
	C230.746582,120.190193 244.516174,120.316460 258.539856,120.757614 
	C258.793915,121.083702 258.375916,121.128830 258.168579,121.097015 
	C244.302200,121.045273 230.643188,121.025345 216.518402,121.023018 
z"/>
<path fill="#D6AACF" opacity="1.000000" stroke="none" 
	d="
M257.493469,82.962860 
	C257.960266,82.935143 258.376129,82.872414 258.585175,82.895096 
	C258.255157,83.248886 257.714752,83.871071 257.177246,83.868584 
	C243.403534,83.804993 229.630081,83.676140 215.580841,83.264572 
	C215.305084,82.970490 215.678879,82.947609 215.865814,82.953552 
	C229.710739,82.969864 243.368713,82.980217 257.493469,82.962860 
z"/>
<path fill="#A352B8" opacity="1.000000" stroke="none" 
	d="
M10.258945,183.430786 
	C24.084923,183.080536 37.998722,183.071442 52.370399,183.071838 
	C51.310738,183.388275 49.797333,183.937988 48.275024,183.963852 
	C35.883369,184.174438 23.490082,184.290894 11.096985,184.401688 
	C10.848811,184.403885 10.596926,183.991119 10.258945,183.430786 
z"/>
<path fill="#B75EA7" opacity="1.000000" stroke="none" 
	d="
M214.318100,182.900024 
	C214.771240,182.871857 214.781204,183.369827 214.790771,183.618225 
	C202.654587,183.803406 190.508835,183.740204 178.236908,183.242340 
	C190.028809,182.847870 201.946884,182.888031 214.318100,182.900024 
z"/>
<path fill="#B75DA7" opacity="1.000000" stroke="none" 
	d="
M259.540161,183.914307 
	C259.084900,183.846207 259.112091,183.380112 259.150391,183.149841 
	C271.170593,182.953552 283.152496,182.987518 295.607361,183.045074 
	C294.541626,183.379288 293.004730,183.948105 291.463898,183.958893 
	C280.974884,184.032410 270.485016,183.988434 259.540161,183.914307 
z"/>
<path fill="#B75DA7" opacity="1.000000" stroke="none" 
	d="
M294.920624,20.637295 
	C283.413208,20.986416 271.638855,20.980124 259.391113,20.956631 
	C259.440186,20.634300 259.963409,20.061783 260.484955,20.063358 
	C271.874664,20.097746 283.264160,20.195938 294.920624,20.637295 
z"/>
<path fill="#BD84CB" opacity="1.000000" stroke="none" 
	d="
M67.542206,141.042999 
	C67.391487,140.753632 67.705254,140.148300 68.015518,140.150101 
	C77.798828,140.206497 87.581795,140.321930 97.639648,140.739227 
	C87.944679,141.036743 77.974869,141.023407 67.542206,141.042999 
z"/>
<path fill="#E499A8" opacity="1.000000" stroke="none" 
	d="
M512.550171,141.028931 
	C514.123779,140.704025 516.158630,140.050308 518.191711,140.055588 
	C526.244263,140.076477 534.296265,140.303604 542.630859,140.756454 
	C532.945618,141.040070 522.978088,141.021515 512.550171,141.028931 
z"/>
</svg>